<svg id="Layer_1" data-name="Layer 1" xmlns="http://www.w3.org/2000/svg" width="64" height="64" viewBox="0 0 64 64"><defs><style>.cls-1{fill:#fff;}.cls-2{fill:#1d1d1b;}.cls-3{fill:#cbe7f5;}.cls-4{fill:#e6e4da;}.cls-5{fill:#e7413e;}.cls-6{fill:#85bfe9;}.cls-7{fill:#a42116;}</style></defs><title>space-rover-2</title><g id="space-rover-2"><path class="cls-1" d="M26.65,24.45A11.65,11.65,0,0,1,24,28.17l.53,0a4.76,4.76,0,0,1,1-1,6.44,6.44,0,0,1,.89-.57l.41-2Z"/><path class="cls-2" d="M10.74,15.33s2-3.71,5.17-4,7.5.71,9.08,2.75,1,6.54,1,6.54l1.46.38a1.94,1.94,0,0,1,2.29-.75,1.7,1.7,0,0,1,1.29,2.38,2.14,2.14,0,0,1-.92,1l-1,4.29s.83.46,1,.92a4.9,4.9,0,0,1,.21,1.13s2.42.25,3.42.33l2.29.21a3.78,3.78,0,0,1,1.17-2.62,4,4,0,0,1,2.5-1L41.45,15a3.4,3.4,0,0,1-1.33-2.87,2.32,2.32,0,0,1,3.25-1.92,3.27,3.27,0,0,1,1.29,1.21l6-1.62a2.43,2.43,0,0,1,2-2,2.31,2.31,0,0,1,2.83,2.29c0,1.38-1.71,2.17-1.71,2.17l.67,7.46a2.93,2.93,0,0,1,1,.71,3.08,3.08,0,0,1,.33,1.08,23.11,23.11,0,0,1,3.71.25c.13.21-1.33,7.67-1.46,8s-1.21.38-1.37.17-1-5.37-1-5.37a21,21,0,0,0-3.58.42,31.46,31.46,0,0,1-.67,4.67c-.25.29-1.21.21-1.21.21s-2.12-6.62-2-6.87,0-.58.54-.67,2.75,0,2.75,0a4.73,4.73,0,0,1,.39-1.86,3.58,3.58,0,0,1,1.22-.78l-.5-7.31s-1.25.13-1.56-.53-.28-.84-.28-.84l-5.47,1.53a3.09,3.09,0,0,1-.66,2.16,3.14,3.14,0,0,1-1.94.91L41,26.8a3.87,3.87,0,0,1,2.25,2,9.37,9.37,0,0,1,.38,2.84,62.34,62.34,0,0,1,4.66,5.5,19.27,19.27,0,0,1,1.69,2.75s3.34.53,4.66,5.16A8.8,8.8,0,0,1,52,54.33c-1.66,1.44-3.87,1.84-8.09,1.84s-11.75.13-20.59-.09-12.22-.69-14.28-3A8.62,8.62,0,0,1,8,43.3a10,10,0,0,1,4.87-4.37,8.1,8.1,0,0,1,1.81-.5s3.41-5.69,4.5-6.69A5.87,5.87,0,0,1,22.49,30a29.92,29.92,0,0,1,3-.16,2.9,2.9,0,0,1,1-1.34,3.44,3.44,0,0,1,1.34-.69l.81-3.94a2.37,2.37,0,0,1-1-.94,3.21,3.21,0,0,1-.31-.87l-1.56-.25a10,10,0,0,1-4.09,6c-3.37,2.19-7.94.88-9.5.19A9.7,9.7,0,0,1,8.3,23.71a6.39,6.39,0,0,1,0-4.41,8.2,8.2,0,0,1,1.09-1.84l-1-.75a2.8,2.8,0,0,1-2.87,0c-1.41-.94-1.06-2.41-.31-3.37s3.09-1.72,3.84-.69a2.93,2.93,0,0,1,.47,2.22Z"/><path class="cls-3" d="M7,13.33c1.28-.23,1.66.44,1.53,1.41a1.39,1.39,0,0,1-2.25,1.09C4.9,15.08,6.27,13.46,7,13.33Z"/><path class="cls-4" d="M12.21,15.93s2.13-2.56,3.53-2.94,2.94-.31,3.22,1.47a12.82,12.82,0,0,1-.66,4.63Z"/><path class="cls-4" d="M10.87,19.11s4.69,3.94,4.63,4.06-2.78,2.28-4.87.69S10.62,19.27,10.87,19.11Z"/><path class="cls-3" d="M10.71,16.64c.21,0,5.81,2.66,5.81,3s-.66,1.88-1.06,1.81a54.21,54.21,0,0,1-4.75-4.19C10.43,17,10.43,16.61,10.71,16.64Z"/><path class="cls-2" d="M11.24,20.52c.27-.18.53.41.59.53s-.19.44.06,1,.66.75.59.94-.25.44-.37.44a2.93,2.93,0,0,1-1.22-1.31A1.73,1.73,0,0,1,11.24,20.52Z"/><path class="cls-2" d="M14,15.8a4.78,4.78,0,0,1,1.41-1.34c.62-.25,1.37,0,1.47.31s-.37.78-.37.78-.62-.28-1,.09-.44.78-.66.75S14,15.93,14,15.8Z"/><path class="cls-3" d="M21.18,14.14a3.25,3.25,0,0,1,2.75,2.56c.5,2.13.84,4.63-.94,7.22s-3.41,3.19-5.12,3.31a8.43,8.43,0,0,1-3.41-.31c-.41-.19-.72-.66-.37-.78a11,11,0,0,0,5.09-4.81C20.93,18,21,14.39,21.18,14.14Z"/><path class="cls-2" d="M21.24,18.89s.84.09.88.25a10.29,10.29,0,0,1-.94,3.38c-.69,1.38-1.22,2-1.5,2s-.66,0-.66-.22,1.09-1.5,1.59-2.62A22.8,22.8,0,0,0,21.24,18.89Z"/><path class="cls-3" d="M42.37,11.21c.68-.23,1.59.34,1.63,1.5s-1.16,2.06-2,1.5S41.15,11.61,42.37,11.21Z"/><path class="cls-3" d="M53.09,8.74c.68-.1,1.31.94,1.06,1.75s-1.56,1.16-2,.59S52,8.89,53.09,8.74Z"/><path class="cls-3" d="M53.59,20.58a.9.9,0,0,1,.91,1c-.12.41-1.5.44-1.66.28A.86.86,0,0,1,53.59,20.58Z"/><path class="cls-5" d="M49.84,23.3s3-.34,5.25-.47,3.31-.25,3.28,0-.66,3.72-.87,3.66-.34-3-.69-3.06a33.87,33.87,0,0,0-5.87.63c0,.22,0,2.56-.31,2.59S49.84,23.61,49.84,23.3Z"/><path class="cls-3" d="M37.34,30.3a2.74,2.74,0,0,1,2.78-2.41c2.16.09,2.69,2.75,2.19,2.94A16.74,16.74,0,0,1,37.34,30.3Z"/><path class="cls-6" d="M17.09,38c.31-.34,3.31-5.37,5.56-6.12s12.53.06,15.75.38,3.78.25,4.84,1.69,3.34,4.63,3.09,4.66a1.83,1.83,0,0,1-.75-.09c-.16-.06-2.81-3.5-3.06-3.53s-1,.28-.87.5,2.78,2.81,2.59,2.84a5,5,0,0,1-1.37,0c-.16-.09-2.16-2.81-2.34-2.87s-1.09.22-.94.44,2.38,2.34,2.19,2.44a2.08,2.08,0,0,1-1.16,0c-.19-.12-1.47-2.06-1.75-2.12s-1,.19-.84.47,1.31,1.53,1.16,1.53Z"/><path class="cls-2" d="M20,36.39a33.32,33.32,0,0,1,2.66-3.31c.13,0,.59.13.59.31a17.46,17.46,0,0,1-2.28,3.19A2,2,0,0,1,20,36.39Z"/><path class="cls-5" d="M20.12,39.55a205.13,205.13,0,0,1,22.31.5c5.75.66,7.84,1.22,9.44,4s.56,7.5-1.87,9.09-17.91,1.22-24.31,1S13.09,54,10.74,52.05,8.43,46.74,10,44.39,13.59,39.93,20.12,39.55Z"/><path class="cls-7" d="M15.71,41.43c2.15-.55,15.91-.37,21.19-.31S47.55,41,49.84,42.58,52,46.83,51.59,49s-1.31,3.88-6.09,4.22-20,.5-25.78,0S12.18,52.21,11,49.64,10.68,42.71,15.71,41.43Z"/><path class="cls-5" d="M17.34,42.49a4.67,4.67,0,0,1,4.91,6.06c-1,3.72-6.5,4.69-9,2.25S10.93,43.05,17.34,42.49Z"/><path class="cls-5" d="M31.8,42.58a4.67,4.67,0,0,1,4.91,6.06c-1,3.72-6.5,4.69-9,2.25S25.4,43.14,31.8,42.58Z"/><path class="cls-5" d="M45.87,42.58a4.67,4.67,0,0,1,4.91,6.06c-1,3.72-6.5,4.69-9,2.25S39.46,43.14,45.87,42.58Z"/><path class="cls-2" d="M15.9,45.64a2.18,2.18,0,0,1,3.28,1.5c.53,1.81-2.06,3-3.41,1.63A2,2,0,0,1,15.9,45.64Z"/><path class="cls-2" d="M30.4,45.77a2.18,2.18,0,0,1,3.28,1.5c.53,1.81-2.06,3-3.41,1.63A2,2,0,0,1,30.4,45.77Z"/><path class="cls-2" d="M44.71,45.64A2.18,2.18,0,0,1,48,47.14c.53,1.81-2.06,3-3.41,1.63A2,2,0,0,1,44.71,45.64Z"/></g></svg>